<?xml version="1.0" encoding="UTF-8"?>
<svg width="512pt" height="512pt" version="1.1" viewBox="0 0 512 512" xmlns="http://www.w3.org/2000/svg">
 <path d="m99.02 244.07-27.852-4.043-12.441-25.242c-0.41797-0.85938-1.2969-1.3984-2.2539-1.3828-0.94922 0.007812-1.8164 0.53906-2.25 1.3828l-12.445 25.242-27.852 4.043c-0.92969 0.14453-1.6992 0.79688-1.9961 1.6914-0.29688 0.89844-0.058594 1.8906 0.61328 2.5586l20.172 19.66-4.7617 27.75h0.003906c-0.16016 0.9375 0.21484 1.8828 0.97266 2.457 0.8125 0.51172 1.8477 0.51172 2.6602 0l24.73-12.902 24.934 13.055v0.003906c0.34375 0.19531 0.73047 0.30078 1.125 0.30469 0.53516 0.011718 1.0547-0.14844 1.4883-0.46094 0.77344-0.5625 1.168-1.5117 1.0234-2.457l-4.7617-27.75 20.121-19.66c0.69141-0.65625 0.94922-1.6484 0.66406-2.5586-0.29687-0.85547-1.0117-1.4922-1.8945-1.6914z" fill="#facc14"/>
 <path d="m198.81 244.07-27.852-4.043-12.238-25.242c-0.43359-0.84375-1.3008-1.375-2.25-1.3828-0.95703-0.015625-1.8359 0.52344-2.2539 1.3828l-12.441 25.242-27.852 4.043c-0.94141 0.14844-1.7266 0.79688-2.0508 1.6914-0.29297 0.89844-0.058594 1.8906 0.61719 2.5586l20.172 19.66-4.7617 27.75c-0.14453 0.94531 0.25 1.8945 1.0234 2.457 0.79297 0.51562 1.8164 0.51562 2.6094 0l24.934-13.055 24.883 13.055h0.003906c0.35938 0.20703 0.76563 0.3125 1.1758 0.30859 0.53125-0.003906 1.0469-0.16406 1.4844-0.46094 0.75781-0.57422 1.1289-1.5195 0.97266-2.457l-4.7617-27.75 19.969-19.508c0.67188-0.66797 0.91016-1.6602 0.61328-2.5586-0.3125-0.88281-1.0742-1.5273-1.9961-1.6914z" fill="#facc14"/>
 <path d="m298.55 244.07-27.852-4.043-12.441-25.242c-0.41797-0.85938-1.2969-1.3984-2.2539-1.3828-0.94922 0.007812-1.8164 0.53906-2.2539 1.3828l-12.441 25.242-27.852 4.043c-0.92969 0.14453-1.6992 0.79688-1.9961 1.6914-0.29688 0.89844-0.058593 1.8906 0.61328 2.5586l20.172 19.66-4.7617 27.75c-0.15625 0.9375 0.21875 1.8828 0.97266 2.457 0.81641 0.51172 1.8477 0.51172 2.6641 0l24.883-12.902 24.934 13.055v0.003906c0.80078 0.5 1.8125 0.5 2.6133 0 0.77344-0.56641 1.168-1.5117 1.0234-2.457l-4.7617-27.75 20.121-19.66v-0.003906c0.71484-0.64453 0.97266-1.6484 0.66406-2.5586-0.27344-0.95312-1.0703-1.668-2.0469-1.8438z" fill="#facc14"/>
 <path d="m398.34 244.07-27.852-4.043-12.441-25.242c-0.4375-0.84375-1.3047-1.375-2.2539-1.3828-0.95703-0.015625-1.8359 0.52344-2.2539 1.3828l-12.441 25.242-27.852 4.043c-0.94141 0.14844-1.7227 0.79688-2.0469 1.6914-0.3125 0.90625-0.050781 1.9141 0.66406 2.5586l20.121 19.66-4.7617 27.75c-0.14453 0.94531 0.25 1.8945 1.0234 2.457 0.79687 0.51562 1.8164 0.51562 2.6133 0l24.934-13.055 24.883 13.055c0.35938 0.20703 0.76562 0.3125 1.1758 0.30859 0.53125-0.003906 1.0469-0.16406 1.4883-0.46094 0.75391-0.57422 1.1289-1.5195 0.97266-2.457l-4.7617-27.75 20.172-19.66c0.67188-0.67188 0.91016-1.6602 0.61328-2.5625-0.33984-0.83203-1.1016-1.418-1.9961-1.5352z" fill="#facc14"/>
 <path d="m500.12 245.76c-0.32422-0.89453-1.1094-1.543-2.0469-1.6914l-27.852-4.043-12.441-25.242h-0.003906c-0.41797-0.85938-1.2969-1.3984-2.25-1.3828-0.94922 0.007812-1.8164 0.53906-2.2539 1.3828l-12.441 25.242-27.852 4.043c-0.92188 0.16406-1.6836 0.80859-2 1.6914-0.29297 0.89844-0.054688 1.8906 0.61719 2.5586l20.172 19.66-4.7617 27.75c-0.15625 0.9375 0.21875 1.8828 0.97266 2.457 0.81641 0.51172 1.8477 0.51172 2.6641 0l25.035-12.902 24.934 13.055v0.003906c0.80078 0.5 1.8125 0.5 2.6133 0 0.77344-0.56641 1.168-1.5117 1.0234-2.457l-4.7617-27.75 20.121-19.66v-0.003906c0.72266-0.70703 0.92969-1.7891 0.51172-2.7109z" fill="#facc14"/>
</svg>
